<?xml version="1.0" encoding="UTF-8"?>
<svg xmlns="http://www.w3.org/2000/svg" width="105" height="77" viewBox="0 0 105 77" fill="none">
  <path d="M4.78643 63.8998C5.67223 63.8998 6.41816 64.4438 6.41816 65.3917H3.09253C3.24793 64.4282 3.91617 63.8998 4.78643 63.8998ZM8.9357 67.6917H6.10736C5.88979 68.1579 5.4702 68.5309 4.72427 68.5309C3.86955 68.5309 3.17023 68.0025 3.07699 66.868H9.0911C9.12218 66.6039 9.13772 66.3397 9.13772 66.091C9.13772 63.4492 7.35058 61.7708 4.81751 61.7708C2.23781 61.7708 0.43513 63.4803 0.43513 66.2309C0.43513 68.9815 2.26889 70.691 4.81751 70.691C6.97762 70.691 8.51611 69.3856 8.9357 67.6917ZM19.1024 61.8951H16.445V66.6039C16.445 67.7849 15.7923 68.4376 14.7666 68.4376C13.772 68.4376 13.1038 67.7849 13.1038 66.6039V61.8951H10.4619V66.9613C10.4619 69.2768 11.8139 70.6599 13.8186 70.6599C14.9842 70.6599 15.9166 70.1315 16.445 69.3856V70.5667H19.1024V61.8951ZM23.6686 66.5417C23.6686 65.0498 24.399 64.6147 25.6577 64.6147H26.3881V61.8019C25.2226 61.8019 24.2746 62.4235 23.6686 63.3404V61.8951H21.0112V70.5667H23.6686V66.5417ZM36.1433 66.2309C36.1433 63.4803 34.1852 61.7708 31.6366 61.7708C29.1035 61.7708 27.1299 63.4803 27.1299 66.2309C27.1299 68.9815 29.0569 70.691 31.6055 70.691C34.1542 70.691 36.1433 68.9815 36.1433 66.2309ZM29.8339 66.2309C29.8339 64.7546 30.6731 64.0708 31.6366 64.0708C32.569 64.0708 33.4393 64.7546 33.4393 66.2309C33.4393 67.6917 32.5535 68.391 31.6055 68.391C30.642 68.391 29.8339 67.6917 29.8339 66.2309ZM44.5929 68.0491C44.5463 64.8167 39.8531 65.7958 39.8531 64.4127C39.8531 63.9931 40.195 63.7444 40.8166 63.7444C41.5625 63.7444 42.0132 64.1329 42.0909 64.7235H44.5463C44.3753 63.014 43.1321 61.7708 40.8943 61.7708C38.6254 61.7708 37.3666 62.983 37.3666 64.4593C37.3666 67.6451 42.0909 66.6349 42.0909 68.0336C42.0909 68.4221 41.7335 68.7329 41.0497 68.7329C40.3193 68.7329 39.7754 68.3288 39.7132 67.7228H37.0869C37.2112 69.4011 38.7653 70.691 41.0808 70.691C43.2564 70.691 44.5929 69.5565 44.5929 68.0491ZM50.2126 67.3187L48.2079 61.8951H45.2396L48.7673 70.2714L46.7781 74.6848H49.6376L55.0767 61.8951H52.2017L50.2126 67.3187ZM63.0774 68.0491C63.0308 64.8167 58.3376 65.7958 58.3376 64.4127C58.3376 63.9931 58.6795 63.7444 59.3011 63.7444C60.047 63.7444 60.4977 64.1329 60.5754 64.7235H63.0308C62.8598 63.014 61.6166 61.7708 59.3788 61.7708C57.1099 61.7708 55.8512 62.983 55.8512 64.4593C55.8512 67.6451 60.5754 66.6349 60.5754 68.0336C60.5754 68.4221 60.218 68.7329 59.5342 68.7329C58.8038 68.7329 58.2599 68.3288 58.1977 67.7228H55.5714C55.6957 69.4011 57.2498 70.691 59.5653 70.691C61.7409 70.691 63.0774 69.5565 63.0774 68.0491ZM65.1228 67.5518C65.1228 69.8052 66.3816 70.5667 68.1842 70.5667H69.5362V68.3133H68.5883C67.9978 68.3133 67.7802 68.0957 67.7802 67.5829V64.1019H69.5207V61.8951H67.7802V59.7817H65.1228V61.8951H64.066V64.1019H65.1228V67.5518ZM74.8394 63.8998C75.7252 63.8998 76.4711 64.4438 76.4711 65.3917H73.1455C73.3009 64.4282 73.9691 63.8998 74.8394 63.8998ZM78.9887 67.6917H76.1603C75.9428 68.1579 75.5232 68.5309 74.7772 68.5309C73.9225 68.5309 73.2232 68.0025 73.13 66.868H79.1441C79.1751 66.6039 79.1907 66.3397 79.1907 66.091C79.1907 63.4492 77.4035 61.7708 74.8705 61.7708C72.2908 61.7708 70.4881 63.4803 70.4881 66.2309C70.4881 68.9815 72.3219 70.691 74.8705 70.691C77.0306 70.691 78.5691 69.3856 78.9887 67.6917ZM92.5431 70.5667H95.185V65.5005C95.185 63.1694 93.8019 61.8019 91.6573 61.8019C90.3986 61.8019 89.3107 62.5012 88.7357 63.4181C88.1452 62.3769 87.0885 61.8019 85.7831 61.8019C84.6486 61.8019 83.7628 62.2836 83.25 62.983V61.8951H80.5926V70.5667H83.25V65.8579C83.25 64.7235 83.9027 64.1019 84.9128 64.1019C85.9229 64.1019 86.5756 64.7235 86.5756 65.8579V70.5667H89.2175V65.8579C89.2175 64.7235 89.8702 64.1019 90.8803 64.1019C91.8904 64.1019 92.5431 64.7235 92.5431 65.8579V70.5667ZM104.083 68.0491C104.037 64.8167 99.3435 65.7958 99.3435 64.4127C99.3435 63.9931 99.6854 63.7444 100.307 63.7444C101.053 63.7444 101.504 64.1329 101.581 64.7235H104.037C103.866 63.014 102.622 61.7708 100.385 61.7708C98.1158 61.7708 96.857 62.983 96.857 64.4593C96.857 67.6451 101.581 66.6349 101.581 68.0336C101.581 68.4221 101.224 68.7329 100.54 68.7329C99.8097 68.7329 99.2658 68.3288 99.2036 67.7228H96.5773C96.7016 69.4011 98.2557 70.691 100.571 70.691C102.747 70.691 104.083 69.5565 104.083 68.0491Z" fill="#1D1D1D"></path>
  <path d="M65.7429 31.5613L65.7447 31.5654C63.5399 36.7825 58.3749 40.4437 52.3552 40.4437C48.219 40.4437 44.4865 38.7155 41.8405 35.9415L41.8394 35.9392L41.8232 35.9384C41.4621 35.551 41.038 35.0781 40.7204 34.6529L40.72 34.6536C40.7136 34.6449 40.7075 34.6355 40.7011 34.6268C40.601 34.4924 40.5028 34.356 40.4073 34.2182C40.388 34.1898 40.3691 34.1611 40.3499 34.1328C40.2581 33.9984 40.1674 33.8632 40.0806 33.7253C40.0651 33.7011 40.0511 33.6766 40.0356 33.6524C39.8774 33.3986 39.7267 33.1395 39.5839 32.8752C39.5552 32.8231 39.5254 32.7713 39.4975 32.7188C39.4529 32.6335 39.411 32.5466 39.3679 32.4605C39.3139 32.3529 39.2603 32.2456 39.2089 32.1364C39.1742 32.0628 39.1413 31.9884 39.1077 31.914C39.0499 31.7852 38.9933 31.6557 38.9389 31.525C38.914 31.4646 38.8894 31.4045 38.8652 31.3437C38.8014 31.1843 38.741 31.0238 38.6828 30.8618C38.6704 30.8271 38.6575 30.7927 38.6454 30.758C38.1171 29.2503 37.8278 27.6305 37.8278 25.9427C37.8278 25.4188 37.8584 24.9026 37.9124 24.3931C37.9158 24.3893 37.9192 24.3859 37.9226 24.3821C37.9758 23.8912 38.0525 23.4074 38.1533 22.9326L38.1446 22.9232C42.9414 18.5132 49.2123 15.6829 56.1331 15.2512C55.1099 15.1402 54.0714 15.0798 53.0184 15.0798C48.4082 15.0798 44.0529 16.1727 40.198 18.114L40.1886 18.0951C42.77 14.091 47.2688 11.4398 52.3869 11.4398C57.1429 11.4398 61.3638 13.7288 64.0086 17.2653L64.0233 17.3061C60.7958 17.3454 57.822 18.4395 55.4306 20.2591L55.4313 20.2603C52.3817 22.6377 48.5457 24.0539 44.3792 24.0539C43.7712 24.0539 43.1699 24.0237 42.5774 23.9648L42.5796 23.9663C41.3817 25.4948 40.6679 27.4205 40.6679 29.5132C40.6679 31.7992 41.5214 33.8843 42.9252 35.472L77.6965 20.508C77.346 18.8742 76.8335 17.2502 76.1469 15.6576C70.4822 2.51809 55.2387 -3.54124 42.0996 2.12342C28.9605 7.78809 22.9011 23.0312 28.5658 36.1707C32.8142 46.0249 42.4505 51.8969 52.5463 51.8274C55.9117 51.8043 59.3281 51.1208 62.6127 49.7045C63.231 49.4382 63.8334 49.1505 64.4195 48.843C64.7126 48.6893 65.0015 48.5303 65.2863 48.3668C66.1413 47.8758 66.9593 47.3414 67.7388 46.7674C67.9987 46.5763 68.254 46.3803 68.5051 46.1805C70.5147 44.581 72.2467 42.7104 73.6698 40.6469C73.8476 40.3889 74.021 40.1279 74.1891 39.8639C75.0301 38.5447 75.7488 37.1538 76.3384 35.7103C76.4562 35.4218 76.5688 35.131 76.6764 34.8379C77.0235 33.8926 77.3128 32.9258 77.5484 31.9446C77.6636 31.465 77.7656 30.9823 77.8532 30.4959C77.8713 30.3954 77.8895 30.2953 77.9065 30.1945C78.1293 28.8711 78.2517 27.5262 78.266 26.1719L65.7429 31.5613Z" fill="#008A70"></path>
</svg>
